<svg width="34" height="41" viewBox="0 0 34 41" fill="none" xmlns="http://www.w3.org/2000/svg">
<path d="M33.4562 16.9139C33.4562 14.6928 33.0235 12.4934 32.1828 10.4413C31.3422 8.38917 30.11 6.52458 28.5566 4.95398C27.0033 3.38337 25.1592 2.1375 23.1296 1.2875C21.1001 0.437492 18.9248 0 16.7281 0C14.5313 0 12.3561 0.437492 10.3265 1.2875C8.29698 2.1375 6.45289 3.38337 4.89954 4.95398C3.3462 6.52458 2.11401 8.38917 1.27335 10.4413C0.432684 12.4934 -3.27343e-08 14.6928 0 16.9139C0 20.2653 0.979788 23.3823 2.64065 26.0112H2.62153C8.26128 34.9394 16.7281 40.8909 16.7281 40.8909L30.8346 26.0112H30.8179C32.5395 23.2962 33.4551 20.1391 33.4562 16.9139ZM16.7281 24.1628C14.8267 24.1628 13.0032 23.3991 11.6587 22.0396C10.3142 20.6802 9.5589 18.8365 9.5589 16.9139C9.5589 14.9914 10.3142 13.1477 11.6587 11.7882C13.0032 10.4288 14.8267 9.66511 16.7281 9.66511C18.6295 9.66511 20.453 10.4288 21.7975 11.7882C23.1419 13.1477 23.8973 14.9914 23.8973 16.9139C23.8973 18.8365 23.1419 20.6802 21.7975 22.0396C20.453 23.3991 18.6295 24.1628 16.7281 24.1628Z" fill="white"/>
</svg>
